<svg width="388" height="506" viewBox="0 0 388 506" fill="none" xmlns="http://www.w3.org/2000/svg">
<rect width="388" height="506" rx="10" fill="#F9EAE1"/>
<path d="M55.36 362V334.36H61.16L68.8 357.56L76.48 334.36H82.28V362H79.08V337.76H78.48L70.6 361H67.04L59.16 337.76H58.56V362H55.36ZM92.8728 362.4C91.0328 362.4 89.6328 361.88 88.6728 360.84C87.7128 359.8 87.2328 358.28 87.2328 356.28C87.2328 354.973 87.4595 353.907 87.9128 353.08C88.3661 352.253 89.0461 351.627 89.9528 351.2C90.8861 350.747 92.0328 350.467 93.3928 350.36L99.5528 349.76V348.04C99.5528 346.68 99.2461 345.72 98.6328 345.16C98.0461 344.6 97.1661 344.32 95.9928 344.32C95.3261 344.32 94.5261 344.347 93.5928 344.4C92.6861 344.453 91.7795 344.52 90.8728 344.6C89.9661 344.68 89.1661 344.76 88.4728 344.84L88.3128 342.48C88.9528 342.347 89.7261 342.213 90.6328 342.08C91.5395 341.947 92.4861 341.84 93.4728 341.76C94.4595 341.653 95.3661 341.6 96.1928 341.6C97.7128 341.6 98.9528 341.84 99.9128 342.32C100.873 342.773 101.566 343.48 101.993 344.44C102.446 345.373 102.673 346.573 102.673 348.04V358.16C102.726 358.747 102.953 359.173 103.353 359.44C103.779 359.707 104.313 359.88 104.953 359.96L104.833 362.4C104.246 362.4 103.713 362.36 103.233 362.28C102.753 362.227 102.299 362.133 101.873 362C101.526 361.867 101.193 361.707 100.873 361.52C100.579 361.333 100.286 361.107 99.9928 360.84C99.4861 361.053 98.8328 361.28 98.0328 361.52C97.2595 361.76 96.4195 361.96 95.5128 362.12C94.6328 362.307 93.7528 362.4 92.8728 362.4ZM93.3928 359.8C94.1128 359.8 94.8595 359.733 95.6328 359.6C96.4061 359.467 97.1395 359.307 97.8328 359.12C98.5261 358.933 99.0995 358.76 99.5528 358.6V352.08L93.7528 352.64C92.5528 352.747 91.6861 353.093 91.1528 353.68C90.6461 354.267 90.3928 355.107 90.3928 356.2C90.3928 357.32 90.6461 358.2 91.1528 358.84C91.6595 359.48 92.4061 359.8 93.3928 359.8ZM108.591 362V342H111.671V343.4C112.124 343.133 112.684 342.867 113.351 342.6C114.044 342.333 114.778 342.107 115.551 341.92C116.324 341.707 117.071 341.6 117.791 341.6C119.631 341.6 121.031 341.933 121.991 342.6C122.978 343.24 123.658 344.28 124.031 345.72C124.404 347.16 124.591 349.053 124.591 351.4V362H121.471V351.52C121.471 349.787 121.364 348.4 121.151 347.36C120.964 346.32 120.564 345.573 119.951 345.12C119.364 344.64 118.458 344.4 117.231 344.4C116.564 344.4 115.871 344.48 115.151 344.64C114.458 344.773 113.804 344.96 113.191 345.2C112.578 345.413 112.071 345.627 111.671 345.84V362H108.591ZM134.474 362.4C132.634 362.4 131.234 361.88 130.274 360.84C129.314 359.8 128.834 358.28 128.834 356.28C128.834 354.973 129.061 353.907 129.514 353.08C129.968 352.253 130.648 351.627 131.554 351.2C132.488 350.747 133.634 350.467 134.994 350.36L141.154 349.76V348.04C141.154 346.68 140.848 345.72 140.234 345.16C139.648 344.6 138.768 344.32 137.594 344.32C136.928 344.32 136.128 344.347 135.194 344.4C134.288 344.453 133.381 344.52 132.474 344.6C131.568 344.68 130.768 344.76 130.074 344.84L129.914 342.48C130.554 342.347 131.328 342.213 132.234 342.08C133.141 341.947 134.088 341.84 135.074 341.76C136.061 341.653 136.968 341.6 137.794 341.6C139.314 341.6 140.554 341.84 141.514 342.32C142.474 342.773 143.168 343.48 143.594 344.44C144.048 345.373 144.274 346.573 144.274 348.04V358.16C144.328 358.747 144.554 359.173 144.954 359.44C145.381 359.707 145.914 359.88 146.554 359.96L146.434 362.4C145.848 362.4 145.314 362.36 144.834 362.28C144.354 362.227 143.901 362.133 143.474 362C143.128 361.867 142.794 361.707 142.474 361.52C142.181 361.333 141.888 361.107 141.594 360.84C141.088 361.053 140.434 361.28 139.634 361.52C138.861 361.76 138.021 361.96 137.114 362.12C136.234 362.307 135.354 362.4 134.474 362.4ZM134.994 359.8C135.714 359.8 136.461 359.733 137.234 359.6C138.008 359.467 138.741 359.307 139.434 359.12C140.128 358.933 140.701 358.76 141.154 358.6V352.08L135.354 352.64C134.154 352.747 133.288 353.093 132.754 353.68C132.248 354.267 131.994 355.107 131.994 356.2C131.994 357.32 132.248 358.2 132.754 358.84C133.261 359.48 134.008 359.8 134.994 359.8ZM157.913 371.4C155.833 371.4 154.153 371.213 152.873 370.84C151.619 370.493 150.699 369.88 150.113 369C149.553 368.12 149.273 366.92 149.273 365.4C149.273 364.627 149.393 363.96 149.633 363.4C149.873 362.867 150.219 362.373 150.673 361.92C151.153 361.44 151.739 360.947 152.433 360.44C152.086 360.173 151.806 359.8 151.593 359.32C151.406 358.813 151.313 358.253 151.313 357.64C151.313 357.347 151.459 356.88 151.753 356.24C152.073 355.573 152.379 354.987 152.673 354.48C152.113 354.213 151.593 353.853 151.113 353.4C150.659 352.92 150.286 352.28 149.993 351.48C149.699 350.68 149.553 349.667 149.553 348.44C149.553 345.987 150.246 344.24 151.633 343.2C153.019 342.133 154.819 341.6 157.033 341.6C157.753 341.6 158.513 341.653 159.313 341.76C160.113 341.867 160.739 341.987 161.193 342.12L167.153 341.96V344.6L163.393 344.52C163.766 344.893 164.073 345.387 164.313 346C164.579 346.613 164.713 347.427 164.713 348.44C164.713 350.173 164.419 351.533 163.833 352.52C163.246 353.507 162.379 354.2 161.233 354.6C160.086 355 158.646 355.2 156.913 355.2C156.726 355.2 156.406 355.187 155.953 355.16C155.526 355.107 155.206 355.067 154.993 355.04C154.833 355.413 154.673 355.84 154.513 356.32C154.353 356.8 154.273 357.133 154.273 357.32C154.273 357.827 154.366 358.213 154.553 358.48C154.739 358.747 155.166 358.92 155.833 359C156.526 359.08 157.606 359.12 159.072 359.12C160.993 359.12 162.526 359.28 163.673 359.6C164.819 359.92 165.633 360.507 166.113 361.36C166.619 362.187 166.873 363.4 166.873 365C166.873 367.267 166.086 368.893 164.513 369.88C162.939 370.893 160.739 371.4 157.913 371.4ZM157.953 368.76C159.926 368.76 161.379 368.48 162.313 367.92C163.246 367.36 163.713 366.44 163.713 365.16C163.713 364.173 163.553 363.44 163.233 362.96C162.939 362.507 162.433 362.2 161.713 362.04C160.993 361.907 160.033 361.84 158.833 361.84C158.593 361.84 158.259 361.84 157.833 361.84C157.406 361.813 156.966 361.8 156.513 361.8C156.059 361.773 155.646 361.747 155.273 361.72C154.926 361.693 154.686 361.68 154.553 361.68C153.726 362.267 153.153 362.787 152.833 363.24C152.513 363.72 152.353 364.347 152.353 365.12C152.353 366 152.513 366.707 152.833 367.24C153.153 367.773 153.713 368.16 154.513 368.4C155.339 368.64 156.486 368.76 157.953 368.76ZM157.033 352.72C158.686 352.72 159.859 352.4 160.553 351.76C161.246 351.093 161.593 349.987 161.593 348.44C161.593 346.893 161.246 345.787 160.553 345.12C159.859 344.453 158.686 344.12 157.033 344.12C155.486 344.12 154.366 344.453 153.673 345.12C153.006 345.787 152.673 346.893 152.673 348.44C152.673 349.987 153.006 351.093 153.673 351.76C154.366 352.4 155.486 352.72 157.033 352.72ZM177.858 362.4C175.858 362.4 174.272 362.013 173.098 361.24C171.952 360.467 171.125 359.32 170.618 357.8C170.112 356.28 169.858 354.387 169.858 352.12C169.858 349.587 170.205 347.56 170.898 346.04C171.592 344.493 172.565 343.373 173.818 342.68C175.072 341.96 176.552 341.6 178.258 341.6C180.925 341.6 182.938 342.347 184.298 343.84C185.658 345.307 186.338 347.68 186.338 350.96L186.178 353.32H173.018C173.045 355.4 173.432 356.973 174.178 358.04C174.925 359.107 176.272 359.64 178.218 359.64C178.965 359.64 179.778 359.627 180.658 359.6C181.565 359.547 182.458 359.493 183.338 359.44C184.218 359.387 184.965 359.333 185.578 359.28L185.658 361.72C185.018 361.827 184.232 361.933 183.298 362.04C182.392 362.147 181.458 362.227 180.498 362.28C179.538 362.36 178.658 362.4 177.858 362.4ZM173.018 350.8H183.218C183.218 348.347 182.818 346.64 182.018 345.68C181.245 344.693 179.992 344.2 178.258 344.2C176.578 344.2 175.285 344.707 174.378 345.72C173.472 346.733 173.018 348.427 173.018 350.8ZM197.803 362L205.363 334.36H212.283L219.803 362H216.603L214.643 355H202.963L201.003 362H197.803ZM203.643 352.16H213.963L209.843 337.08H207.763L203.643 352.16ZM230.991 362.4C228.884 362.4 227.231 362.053 226.031 361.36C224.831 360.64 223.978 359.493 223.471 357.92C222.991 356.347 222.751 354.267 222.751 351.68C222.751 349.253 223.018 347.307 223.551 345.84C224.111 344.347 225.004 343.267 226.231 342.6C227.458 341.933 229.058 341.6 231.031 341.6C231.484 341.6 232.031 341.64 232.671 341.72C233.338 341.773 234.018 341.853 234.711 341.96C235.404 342.04 236.004 342.12 236.511 342.2L236.391 344.76C235.938 344.707 235.418 344.653 234.831 344.6C234.244 344.547 233.671 344.507 233.111 344.48C232.551 344.427 232.084 344.4 231.711 344.4C230.191 344.4 229.004 344.64 228.151 345.12C227.324 345.6 226.738 346.373 226.391 347.44C226.071 348.48 225.911 349.893 225.911 351.68C225.911 353.627 226.058 355.187 226.351 356.36C226.644 357.507 227.204 358.333 228.031 358.84C228.858 359.347 230.084 359.6 231.711 359.6C232.084 359.6 232.551 359.587 233.111 359.56C233.698 359.507 234.284 359.453 234.871 359.4C235.484 359.347 236.018 359.307 236.471 359.28L236.551 361.84C236.018 361.92 235.404 362 234.711 362.08C234.018 362.16 233.338 362.227 232.671 362.28C232.004 362.36 231.444 362.4 230.991 362.4ZM248.413 362.4C246.306 362.4 244.653 362.053 243.453 361.36C242.253 360.64 241.399 359.493 240.893 357.92C240.413 356.347 240.173 354.267 240.173 351.68C240.173 349.253 240.439 347.307 240.973 345.84C241.533 344.347 242.426 343.267 243.653 342.6C244.879 341.933 246.479 341.6 248.453 341.6C248.906 341.6 249.453 341.64 250.093 341.72C250.759 341.773 251.439 341.853 252.133 341.96C252.826 342.04 253.426 342.12 253.933 342.2L253.813 344.76C253.359 344.707 252.839 344.653 252.253 344.6C251.666 344.547 251.093 344.507 250.533 344.48C249.973 344.427 249.506 344.4 249.133 344.4C247.613 344.4 246.426 344.64 245.573 345.12C244.746 345.6 244.159 346.373 243.813 347.44C243.493 348.48 243.333 349.893 243.333 351.68C243.333 353.627 243.479 355.187 243.773 356.36C244.066 357.507 244.626 358.333 245.453 358.84C246.279 359.347 247.506 359.6 249.133 359.6C249.506 359.6 249.973 359.587 250.533 359.56C251.119 359.507 251.706 359.453 252.293 359.4C252.906 359.347 253.439 359.307 253.893 359.28L253.973 361.84C253.439 361.92 252.826 362 252.133 362.08C251.439 362.16 250.759 362.227 250.093 362.28C249.426 362.36 248.866 362.4 248.413 362.4ZM266.115 362.4C263.875 362.4 262.128 362.013 260.875 361.24C259.648 360.467 258.781 359.293 258.275 357.72C257.795 356.147 257.555 354.16 257.555 351.76C257.555 349.467 257.821 347.573 258.355 346.08C258.915 344.587 259.821 343.467 261.075 342.72C262.328 341.973 264.008 341.6 266.115 341.6C268.248 341.6 269.941 341.973 271.195 342.72C272.448 343.467 273.341 344.587 273.875 346.08C274.435 347.573 274.715 349.467 274.715 351.76C274.715 354.16 274.461 356.147 273.955 357.72C273.475 359.293 272.608 360.467 271.355 361.24C270.128 362.013 268.381 362.4 266.115 362.4ZM266.115 359.72C267.661 359.72 268.821 359.453 269.595 358.92C270.368 358.36 270.875 357.493 271.115 356.32C271.381 355.147 271.515 353.627 271.515 351.76C271.515 349.92 271.355 348.453 271.035 347.36C270.715 346.267 270.168 345.48 269.395 345C268.621 344.52 267.528 344.28 266.115 344.28C264.728 344.28 263.635 344.52 262.835 345C262.061 345.48 261.515 346.267 261.195 347.36C260.875 348.453 260.715 349.92 260.715 351.76C260.715 353.627 260.835 355.147 261.075 356.32C261.341 357.493 261.861 358.36 262.635 358.92C263.408 359.453 264.568 359.72 266.115 359.72ZM285.687 362.4C283.98 362.4 282.673 362.053 281.767 361.36C280.86 360.667 280.233 359.587 279.887 358.12C279.567 356.653 279.407 354.76 279.407 352.44V342H282.487V352.44C282.487 354.2 282.567 355.6 282.727 356.64C282.913 357.68 283.3 358.44 283.887 358.92C284.473 359.373 285.353 359.6 286.527 359.6C287.7 359.6 288.767 359.44 289.727 359.12C290.687 358.8 291.46 358.48 292.047 358.16V342H295.127V362H292.047V360.6C291.193 361.08 290.26 361.507 289.247 361.88C288.26 362.227 287.073 362.4 285.687 362.4ZM300.896 362V342H303.976V343.4C304.429 343.133 304.989 342.867 305.656 342.6C306.349 342.333 307.082 342.107 307.856 341.92C308.629 341.707 309.376 341.6 310.096 341.6C311.936 341.6 313.336 341.933 314.296 342.6C315.282 343.24 315.962 344.28 316.336 345.72C316.709 347.16 316.896 349.053 316.896 351.4V362H313.776V351.52C313.776 349.787 313.669 348.4 313.456 347.36C313.269 346.32 312.869 345.573 312.256 345.12C311.669 344.64 310.762 344.4 309.536 344.4C308.869 344.4 308.176 344.48 307.456 344.64C306.762 344.773 306.109 344.96 305.496 345.2C304.882 345.413 304.376 345.627 303.976 345.84V362H300.896ZM328.979 362.44C327.592 362.44 326.486 362.227 325.659 361.8C324.859 361.373 324.286 360.64 323.939 359.6C323.592 358.533 323.419 357.04 323.419 355.12V344.68H320.579V342H323.419V335.88H326.499V342H332.779V344.68H326.499V354.2C326.499 355.613 326.552 356.72 326.659 357.52C326.792 358.293 327.059 358.84 327.459 359.16C327.859 359.48 328.486 359.64 329.339 359.64C329.606 359.64 329.952 359.627 330.379 359.6C330.806 359.573 331.232 359.547 331.659 359.52C332.112 359.467 332.512 359.427 332.859 359.4L333.059 362C332.472 362.08 331.779 362.173 330.979 362.28C330.179 362.387 329.512 362.44 328.979 362.44Z" fill="#A26B6B"/>
<path d="M193.5 148.125C210.536 148.125 224.333 161.923 224.333 178.958C224.333 195.994 210.536 209.792 193.5 209.792C176.465 209.792 162.667 195.994 162.667 178.958C162.667 161.923 176.465 148.125 193.5 148.125ZM224.333 229.371C224.333 237.542 222.175 256.581 207.452 277.856L201.208 240.625L208.454 226.133C203.675 225.594 198.665 225.208 193.5 225.208C188.336 225.208 183.325 225.594 178.546 226.133L185.792 240.625L179.548 277.856C164.825 256.581 162.667 237.542 162.667 229.371C144.244 234.767 131.833 244.479 131.833 256.042V286.875H255.167V256.042C255.167 244.479 242.833 234.767 224.333 229.371Z" fill="#352222"/>
</svg>
